<?xml version="1.0" encoding="utf-8"?>
<!-- Generator: Adobe Illustrator 18.1.1, SVG Export Plug-In . SVG Version: 6.00 Build 0)  -->
<svg version="1.1" xmlns="http://www.w3.org/2000/svg" xmlns:xlink="http://www.w3.org/1999/xlink" x="0px" y="0px"
	 viewBox="-6.8 300 618.8 200" enable-background="new -6.8 0 618.8 792" xml:space="preserve">
<g id="Layer_1" display="none">
	<path display="inline" fill="#FFFFFF" d="M322.5,348.5c0,6.9-5.5,12.4-12.4,12.4c-6.9,0-12.4-5.5-12.4-12.4
		c0-6.9,5.4-12.4,12.4-12.4C317.2,336.3,322.5,341.8,322.5,348.5z M271.3,373.5c0,1.1,0,3.1,0,3.1s-5.9-7.6-18.5-7.6
		c-20.8,0-37.1,15.9-37.1,37.9c0,21.8,16.1,37.9,37.1,37.9c12.8,0,18.5-7.8,18.5-7.8v3.3c0,1.5,1.1,2.7,2.7,2.7h15.5v-71.9
		c0,0-14.1,0-15.5,0C272.4,370.9,271.3,372.2,271.3,373.5z M271.3,419.6c-2.9,4.2-8.6,7.8-15.5,7.8c-12.2,0-21.6-7.6-21.6-20.6
		s9.4-20.6,21.6-20.6c6.7,0,12.8,3.8,15.5,7.8V419.6z M300.9,370.9h18.4v71.9h-18.4V370.9z M575.1,368.9c-12.6,0-18.5,7.6-18.5,7.6
		v-40.3h-18.4v106.5c0,0,14.1,0,15.5,0c1.5,0,2.7-1.3,2.7-2.7v-3.3l0,0c0,0,5.9,7.8,18.5,7.8c20.8,0,37.1-16.1,37.1-37.9
		C612,385,595.7,368.9,575.1,368.9z M572,427.3c-7.1,0-12.6-3.6-15.5-7.8v-25.6c2.9-3.8,9-7.8,15.5-7.8c12.2,0,21.6,7.6,21.6,20.6
		S584.3,427.3,572,427.3z M528.6,400.1v42.8h-18.4v-40.7c0-11.9-3.8-16.6-14.1-16.6c-5.5,0-11.3,2.9-14.9,7.1v50.1h-18.4v-71.9h14.5
		c1.5,0,2.7,1.3,2.7,2.7v3.1c5.4-5.5,12.4-7.6,19.5-7.6c8,0,14.7,2.3,20.1,6.9C526.2,381.2,528.6,388.1,528.6,400.1z M418.3,368.9
		c-12.6,0-18.5,7.6-18.5,7.6v-40.3h-18.4v106.5c0,0,14.1,0,15.5,0c1.5,0,2.7-1.3,2.7-2.7v-3.3l0,0c0,0,5.9,7.8,18.5,7.8
		c20.8,0,37.1-16.1,37.1-37.9C455.4,385,439.2,368.9,418.3,368.9z M415.3,427.3c-7.1,0-12.6-3.6-15.5-7.8v-25.6
		c2.9-3.8,9-7.8,15.5-7.8c12.2,0,21.6,7.6,21.6,20.6S427.5,427.3,415.3,427.3z M365.6,368.9c5.5,0,8.4,1,8.4,1v17
		c0,0-15.3-5.2-24.9,5.7v50.3h-18.4v-72.1c0,0,14.1,0,15.5,0c1.5,0,2.7,1.3,2.7,2.7v3.1C352.4,372.6,359.8,368.9,365.6,368.9z
		 M174.9,436.2c-1-2.3-1.9-4.8-2.9-6.9c-1.5-3.4-3.1-6.7-4.4-9.8l-0.2-0.2c-13.2-28.7-27.3-57.7-42.3-86.4l-0.6-1.1
		c-1.5-2.9-3.1-5.9-4.6-9c-1.9-3.4-3.8-7.1-6.9-10.5c-6.1-7.6-14.9-11.9-24.3-11.9c-9.6,0-18.2,4.2-24.5,11.5
		c-2.9,3.4-5,7.1-6.9,10.5c-1.5,3.1-3.1,6.1-4.6,9l-0.6,1.1c-14.7,28.7-29.1,57.7-42.3,86.4l-0.2,0.4c-1.3,3.1-2.9,6.3-4.4,9.8
		c-1,2.1-1.9,4.4-2.9,6.9c-2.5,7.1-3.3,13.8-2.3,20.6C2.5,471,12,483.1,25.2,488.4c5,2.1,10.1,3.1,15.5,3.1c1.5,0,3.4-0.2,5-0.4
		c6.3-0.8,12.8-2.9,19.1-6.5c7.8-4.4,15.3-10.7,23.7-19.9c8.4,9.2,16.1,15.5,23.7,19.9c6.3,3.6,12.8,5.7,19.1,6.5
		c1.5,0.2,3.4,0.4,5,0.4c5.4,0,10.7-1,15.5-3.1c13.4-5.4,22.8-17.6,24.9-31.7C178.2,450,177.4,443.3,174.9,436.2z M88.7,446.2
		c-10.3-13-17-25.2-19.3-35.6c-1-4.4-1.1-8.2-0.6-11.7c0.4-3.1,1.5-5.7,3.1-8c3.6-5.2,9.8-8.4,16.8-8.4s13.4,3.1,16.8,8.4
		c1.5,2.3,2.7,5,3.1,8c0.6,3.4,0.4,7.5-0.6,11.7C105.7,420.8,99,433,88.7,446.2z M165,455.2c-1.3,9.9-8,18.5-17.4,22.4
		c-4.6,1.9-9.6,2.5-14.5,1.9c-4.8-0.6-9.6-2.1-14.5-5c-6.9-3.8-13.8-9.8-21.8-18.5c12.6-15.5,20.3-29.6,23.1-42.3
		c1.3-5.9,1.5-11.3,1-16.3c-0.8-4.8-2.5-9.2-5.2-13c-5.9-8.6-15.9-13.6-27-13.6s-21,5.2-27,13.6c-2.7,3.8-4.4,8.2-5.2,13
		c-0.8,5-0.6,10.5,1,16.3c2.9,12.6,10.7,27,23.1,42.4c-7.8,8.8-14.9,14.7-21.8,18.5c-5,2.9-9.8,4.4-14.5,5
		c-5.2,0.6-10.1-0.2-14.5-1.9c-9.4-3.8-16.1-12.4-17.4-22.4c-0.6-4.8-0.2-9.6,1.7-14.9c0.6-1.9,1.5-3.8,2.5-6.1
		c1.3-3.1,2.9-6.3,4.4-9.6l0.2-0.4c13.2-28.5,27.3-57.5,42.1-85.8l0.6-1.1c1.5-2.9,3.1-5.9,4.6-8.8c1.5-3.1,3.3-5.9,5.4-8.4
		c4-4.6,9.4-7.1,15.3-7.1s11.3,2.5,15.3,7.1c2.1,2.5,3.8,5.4,5.4,8.4c1.5,2.9,3.1,5.9,4.6,8.8l0.6,1.1c14.5,28.5,28.7,57.5,41.9,86
		v0.2c1.5,3.1,2.9,6.5,4.4,9.6c1,2.3,1.9,4.2,2.5,6.1C165.2,445.4,165.8,450.2,165,455.2z"/>
</g>
<g id="Layer_3">
	<path fill="#FFFFFF" d="M575.1,368.9c-12.6,0-18.5,7.6-18.5,7.6v-40.3h-18.4v106.5c0,0,14.1,0,15.5,0c1.5,0,2.7-1.3,2.7-2.7v-3.3
		l0,0c0,0,5.9,7.8,18.5,7.8c20.8,0,37.1-16.1,37.1-37.9C612,385,595.8,368.9,575.1,368.9z M572,427.3c-7.1,0-12.6-3.6-15.5-7.8
		v-25.6c2.9-3.8,9-7.8,15.5-7.8c12.2,0,21.6,7.6,21.6,20.6S584.3,427.3,572,427.3z M528.6,400.1v42.8h-18.4v-40.7
		c0-11.9-3.8-16.6-14.1-16.6c-5.5,0-11.3,2.9-14.9,7.1v50.1h-18.4v-71.9h14.5c1.5,0,2.7,1.3,2.7,2.7v3.1c5.4-5.5,12.4-7.6,19.5-7.6
		c8,0,14.7,2.3,20.1,6.9C526.2,381.2,528.6,388.1,528.6,400.1z M418.3,368.9c-12.6,0-18.5,7.6-18.5,7.6v-40.3h-18.4v106.5
		c0,0,14.1,0,15.5,0c1.5,0,2.7-1.3,2.7-2.7v-3.3l0,0c0,0,5.9,7.8,18.5,7.8c20.8,0,37.1-16.1,37.1-37.9
		C455.4,385,439.2,368.9,418.3,368.9z M415.3,427.3c-7.1,0-12.6-3.6-15.5-7.8v-25.6c2.9-3.8,9-7.8,15.5-7.8
		c12.2,0,21.6,7.6,21.6,20.6S427.5,427.3,415.3,427.3z"/>
</g>
<g id="Layer_4">
	<text transform="matrix(0.7115 0 0 1 207.67 438.6582)" fill="#FFFFFF" font-family="'ComicSansMS'" font-size="150">Car</text>
</g>
<g id="Layer_2">
	<path fill="#FFFFFF" d="M129,309.8c-2.3,1-4.8,1.9-6.9,2.9c-3.4,1.5-6.7,3.1-9.8,4.4l-0.2,0.2c-28.7,13.2-57.7,27.3-86.4,42.3
		l-1.1,0.6c-2.9,1.5-5.9,3.1-9,4.6c-3.4,1.9-7.1,3.8-10.5,6.9c-7.6,6.1-11.9,14.9-11.9,24.3c0,9.6,4.2,18.2,11.5,24.5
		c3.4,2.9,7.1,5,10.5,6.9c3.1,1.5,6.1,3.1,9,4.6l1.1,0.6c28.7,14.7,57.7,29.1,86.4,42.3l0.4,0.2c3.1,1.3,6.3,2.9,9.8,4.4
		c2.1,1,4.4,1.9,6.9,2.9c7.1,2.5,13.8,3.3,20.6,2.3c14.3-2.1,26.4-11.7,31.7-24.9c2.1-5,3.1-10.1,3.1-15.5c0-1.5-0.2-3.4-0.4-5
		c-0.8-6.3-2.9-12.8-6.5-19.1c-4.4-7.8-10.7-15.3-19.9-23.7c9.2-8.4,15.5-16.1,19.9-23.7c3.6-6.3,5.7-12.8,6.5-19.1
		c0.2-1.5,0.4-3.4,0.4-5c0-5.4-1-10.7-3.1-15.5c-5.4-13.4-17.6-22.8-31.7-24.9C142.7,306.5,136,307.3,129,309.8z M138.9,396
		c-13,10.3-25.2,17-35.6,19.3c-4.4,1-8.2,1.1-11.7,0.6c-3.1-0.4-5.7-1.5-8-3.1c-5.2-3.6-8.4-9.8-8.4-16.8s3.1-13.4,8.4-16.8
		c2.3-1.5,5-2.7,8-3.1c3.4-0.6,7.5-0.4,11.7,0.6C113.5,379,125.7,385.7,138.9,396z M147.9,319.7c9.9,1.3,18.5,8,22.4,17.4
		c1.9,4.6,2.5,9.6,1.9,14.5c-0.6,4.8-2.1,9.6-5,14.5c-3.8,6.9-9.8,13.8-18.5,21.8c-15.5-12.6-29.6-20.3-42.3-23.1
		c-5.9-1.3-11.3-1.5-16.3-1c-4.8,0.8-9.2,2.5-13,5.2c-8.6,5.9-13.6,15.9-13.6,27c0,11.1,5.2,21,13.6,27c3.8,2.7,8.2,4.4,13,5.2
		c5,0.8,10.5,0.6,16.3-1c12.6-2.9,27-10.7,42.4-23.1c8.8,7.8,14.7,14.9,18.5,21.8c2.9,5,4.4,9.8,5,14.5c0.6,5.2-0.2,10.1-1.9,14.5
		c-3.8,9.4-12.4,16.1-22.4,17.4c-4.8,0.6-9.6,0.2-14.9-1.7c-1.9-0.6-3.8-1.5-6.1-2.5c-3.1-1.3-6.3-2.9-9.6-4.4l-0.4-0.2
		c-28.5-13.2-57.5-27.3-85.8-42.1l-1.1-0.6c-2.9-1.5-5.9-3.1-8.8-4.6c-3.1-1.5-5.9-3.3-8.4-5.4c-4.6-4-7.1-9.4-7.1-15.3
		c0-5.9,2.5-11.3,7.1-15.3c2.5-2.1,5.4-3.8,8.4-5.4c2.9-1.5,5.9-3.1,8.8-4.6l1.1-0.6c28.5-14.5,57.5-28.7,86-41.9h0.2
		c3.1-1.5,6.5-2.9,9.6-4.4c2.3-1,4.2-1.9,6.1-2.5C138.1,319.5,142.9,319,147.9,319.7z"/>
</g>
</svg>
